<mxfile host="app.diagrams.net" modified="2023-11-02T15:31:31.179Z" agent="Mozilla/5.0 (Windows NT 10.0; Win64; x64; rv:109.0) Gecko/20100101 Firefox/119.0" etag="Dds3fDKv1vPdE7kovOJW" version="22.0.8" type="github" pages="2">
  <diagram id="R2lEEEUBdFMjLlhIrx00" name="Page-1">
    <mxGraphModel dx="2100" dy="1132" grid="1" gridSize="10" guides="1" tooltips="1" connect="1" arrows="1" fold="1" page="1" pageScale="1" pageWidth="850" pageHeight="1100" math="0" shadow="0" extFonts="Permanent Marker^https://fonts.googleapis.com/css?family=Permanent+Marker">
      <root>
        <mxCell id="0" />
        <mxCell id="1" parent="0" />
        <mxCell id="71VfHX2NH4AoiYsdJ9OX-31" style="edgeStyle=orthogonalEdgeStyle;rounded=0;orthogonalLoop=1;jettySize=auto;html=1;entryX=0;entryY=0.5;entryDx=0;entryDy=0;dashed=1;dashPattern=8 8;endSize=10;endArrow=oval;endFill=1;" edge="1" parent="1" source="71VfHX2NH4AoiYsdJ9OX-1" target="71VfHX2NH4AoiYsdJ9OX-11">
          <mxGeometry relative="1" as="geometry" />
        </mxCell>
        <mxCell id="71VfHX2NH4AoiYsdJ9OX-1" value="ID команды" style="swimlane;fontStyle=0;childLayout=stackLayout;horizontal=1;startSize=30;horizontalStack=0;resizeParent=1;resizeParentMax=0;resizeLast=0;collapsible=1;marginBottom=0;whiteSpace=wrap;html=1;" vertex="1" parent="1">
          <mxGeometry x="120" y="280" width="260" height="120" as="geometry" />
        </mxCell>
        <mxCell id="71VfHX2NH4AoiYsdJ9OX-2" value="Название команды" style="text;strokeColor=none;fillColor=none;align=left;verticalAlign=middle;spacingLeft=4;spacingRight=4;overflow=hidden;points=[[0,0.5],[1,0.5]];portConstraint=eastwest;rotatable=0;whiteSpace=wrap;html=1;" vertex="1" parent="71VfHX2NH4AoiYsdJ9OX-1">
          <mxGeometry y="30" width="260" height="30" as="geometry" />
        </mxCell>
        <mxCell id="71VfHX2NH4AoiYsdJ9OX-4" value="&lt;div&gt;ID участников (FK)&lt;br&gt;&lt;/div&gt;" style="text;strokeColor=none;fillColor=none;align=left;verticalAlign=middle;spacingLeft=4;spacingRight=4;overflow=hidden;points=[[0,0.5],[1,0.5]];portConstraint=eastwest;rotatable=0;whiteSpace=wrap;html=1;" vertex="1" parent="71VfHX2NH4AoiYsdJ9OX-1">
          <mxGeometry y="60" width="260" height="30" as="geometry" />
        </mxCell>
        <mxCell id="71VfHX2NH4AoiYsdJ9OX-88" value="ID скрипта светофора" style="text;strokeColor=none;fillColor=none;align=left;verticalAlign=middle;spacingLeft=4;spacingRight=4;overflow=hidden;points=[[0,0.5],[1,0.5]];portConstraint=eastwest;rotatable=0;whiteSpace=wrap;html=1;" vertex="1" parent="71VfHX2NH4AoiYsdJ9OX-1">
          <mxGeometry y="90" width="260" height="30" as="geometry" />
        </mxCell>
        <mxCell id="71VfHX2NH4AoiYsdJ9OX-29" style="edgeStyle=orthogonalEdgeStyle;rounded=0;orthogonalLoop=1;jettySize=auto;html=1;entryX=1;entryY=0.5;entryDx=0;entryDy=0;dashed=1;dashPattern=8 8;endSize=10;endArrow=oval;endFill=1;" edge="1" parent="1" source="71VfHX2NH4AoiYsdJ9OX-5" target="71VfHX2NH4AoiYsdJ9OX-10">
          <mxGeometry relative="1" as="geometry" />
        </mxCell>
        <mxCell id="71VfHX2NH4AoiYsdJ9OX-5" value="ID организатора" style="swimlane;fontStyle=0;childLayout=stackLayout;horizontal=1;startSize=30;horizontalStack=0;resizeParent=1;resizeParentMax=0;resizeLast=0;collapsible=1;marginBottom=0;whiteSpace=wrap;html=1;" vertex="1" parent="1">
          <mxGeometry x="685" y="280" width="140" height="120" as="geometry" />
        </mxCell>
        <mxCell id="71VfHX2NH4AoiYsdJ9OX-6" value="ФИО организатора" style="text;strokeColor=none;fillColor=none;align=left;verticalAlign=middle;spacingLeft=4;spacingRight=4;overflow=hidden;points=[[0,0.5],[1,0.5]];portConstraint=eastwest;rotatable=0;whiteSpace=wrap;html=1;" vertex="1" parent="71VfHX2NH4AoiYsdJ9OX-5">
          <mxGeometry y="30" width="140" height="30" as="geometry" />
        </mxCell>
        <mxCell id="71VfHX2NH4AoiYsdJ9OX-7" value="Должность" style="text;strokeColor=none;fillColor=none;align=left;verticalAlign=middle;spacingLeft=4;spacingRight=4;overflow=hidden;points=[[0,0.5],[1,0.5]];portConstraint=eastwest;rotatable=0;whiteSpace=wrap;html=1;" vertex="1" parent="71VfHX2NH4AoiYsdJ9OX-5">
          <mxGeometry y="60" width="140" height="30" as="geometry" />
        </mxCell>
        <mxCell id="71VfHX2NH4AoiYsdJ9OX-8" value="Номер телефона" style="text;strokeColor=none;fillColor=none;align=left;verticalAlign=middle;spacingLeft=4;spacingRight=4;overflow=hidden;points=[[0,0.5],[1,0.5]];portConstraint=eastwest;rotatable=0;whiteSpace=wrap;html=1;" vertex="1" parent="71VfHX2NH4AoiYsdJ9OX-5">
          <mxGeometry y="90" width="140" height="30" as="geometry" />
        </mxCell>
        <mxCell id="71VfHX2NH4AoiYsdJ9OX-9" value="ID стенда" style="swimlane;fontStyle=0;childLayout=stackLayout;horizontal=1;startSize=30;horizontalStack=0;resizeParent=1;resizeParentMax=0;resizeLast=0;collapsible=1;marginBottom=0;whiteSpace=wrap;html=1;" vertex="1" parent="1">
          <mxGeometry x="300" y="500" width="250" height="300" as="geometry" />
        </mxCell>
        <mxCell id="71VfHX2NH4AoiYsdJ9OX-10" value="ID организатора (FK)" style="text;strokeColor=none;fillColor=none;align=left;verticalAlign=middle;spacingLeft=4;spacingRight=4;overflow=hidden;points=[[0,0.5],[1,0.5]];portConstraint=eastwest;rotatable=0;whiteSpace=wrap;html=1;" vertex="1" parent="71VfHX2NH4AoiYsdJ9OX-9">
          <mxGeometry y="30" width="250" height="30" as="geometry" />
        </mxCell>
        <mxCell id="71VfHX2NH4AoiYsdJ9OX-11" value="ID команды (FK)" style="text;strokeColor=none;fillColor=none;align=left;verticalAlign=middle;spacingLeft=4;spacingRight=4;overflow=hidden;points=[[0,0.5],[1,0.5]];portConstraint=eastwest;rotatable=0;whiteSpace=wrap;html=1;" vertex="1" parent="71VfHX2NH4AoiYsdJ9OX-9">
          <mxGeometry y="60" width="250" height="30" as="geometry" />
        </mxCell>
        <mxCell id="71VfHX2NH4AoiYsdJ9OX-12" value="ID состояния (FK)" style="text;strokeColor=none;fillColor=none;align=left;verticalAlign=middle;spacingLeft=4;spacingRight=4;overflow=hidden;points=[[0,0.5],[1,0.5]];portConstraint=eastwest;rotatable=0;whiteSpace=wrap;html=1;" vertex="1" parent="71VfHX2NH4AoiYsdJ9OX-9">
          <mxGeometry y="90" width="250" height="30" as="geometry" />
        </mxCell>
        <mxCell id="71VfHX2NH4AoiYsdJ9OX-27" value="Номер итерации" style="text;strokeColor=none;fillColor=none;align=left;verticalAlign=middle;spacingLeft=4;spacingRight=4;overflow=hidden;points=[[0,0.5],[1,0.5]];portConstraint=eastwest;rotatable=0;whiteSpace=wrap;html=1;" vertex="1" parent="71VfHX2NH4AoiYsdJ9OX-9">
          <mxGeometry y="120" width="250" height="30" as="geometry" />
        </mxCell>
        <mxCell id="71VfHX2NH4AoiYsdJ9OX-25" value="Время работы" style="text;strokeColor=none;fillColor=none;align=left;verticalAlign=middle;spacingLeft=4;spacingRight=4;overflow=hidden;points=[[0,0.5],[1,0.5]];portConstraint=eastwest;rotatable=0;whiteSpace=wrap;html=1;" vertex="1" parent="71VfHX2NH4AoiYsdJ9OX-9">
          <mxGeometry y="150" width="250" height="30" as="geometry" />
        </mxCell>
        <mxCell id="71VfHX2NH4AoiYsdJ9OX-33" value="ID скрипта транспортного потока (FK)" style="text;strokeColor=none;fillColor=none;align=left;verticalAlign=middle;spacingLeft=4;spacingRight=4;overflow=hidden;points=[[0,0.5],[1,0.5]];portConstraint=eastwest;rotatable=0;whiteSpace=wrap;html=1;" vertex="1" parent="71VfHX2NH4AoiYsdJ9OX-9">
          <mxGeometry y="180" width="250" height="30" as="geometry" />
        </mxCell>
        <mxCell id="71VfHX2NH4AoiYsdJ9OX-36" value="ID скрипта времени суток (FK)" style="text;strokeColor=none;fillColor=none;align=left;verticalAlign=middle;spacingLeft=4;spacingRight=4;overflow=hidden;points=[[0,0.5],[1,0.5]];portConstraint=eastwest;rotatable=0;whiteSpace=wrap;html=1;" vertex="1" parent="71VfHX2NH4AoiYsdJ9OX-9">
          <mxGeometry y="210" width="250" height="30" as="geometry" />
        </mxCell>
        <mxCell id="71VfHX2NH4AoiYsdJ9OX-37" value="ID скрипта погодных условий (FK)" style="text;strokeColor=none;fillColor=none;align=left;verticalAlign=middle;spacingLeft=4;spacingRight=4;overflow=hidden;points=[[0,0.5],[1,0.5]];portConstraint=eastwest;rotatable=0;whiteSpace=wrap;html=1;" vertex="1" parent="71VfHX2NH4AoiYsdJ9OX-9">
          <mxGeometry y="240" width="250" height="30" as="geometry" />
        </mxCell>
        <mxCell id="71VfHX2NH4AoiYsdJ9OX-39" value="ID скрипта рельефа (FK)" style="text;strokeColor=none;fillColor=none;align=left;verticalAlign=middle;spacingLeft=4;spacingRight=4;overflow=hidden;points=[[0,0.5],[1,0.5]];portConstraint=eastwest;rotatable=0;whiteSpace=wrap;html=1;" vertex="1" parent="71VfHX2NH4AoiYsdJ9OX-9">
          <mxGeometry y="270" width="250" height="30" as="geometry" />
        </mxCell>
        <mxCell id="71VfHX2NH4AoiYsdJ9OX-32" style="edgeStyle=orthogonalEdgeStyle;rounded=0;orthogonalLoop=1;jettySize=auto;html=1;entryX=1;entryY=0.5;entryDx=0;entryDy=0;dashed=1;dashPattern=8 8;endArrow=oval;endFill=1;endSize=10;" edge="1" parent="1" source="71VfHX2NH4AoiYsdJ9OX-13" target="71VfHX2NH4AoiYsdJ9OX-12">
          <mxGeometry relative="1" as="geometry" />
        </mxCell>
        <mxCell id="71VfHX2NH4AoiYsdJ9OX-13" value="ID состояния" style="swimlane;fontStyle=0;childLayout=stackLayout;horizontal=1;startSize=30;horizontalStack=0;resizeParent=1;resizeParentMax=0;resizeLast=0;collapsible=1;marginBottom=0;whiteSpace=wrap;html=1;" vertex="1" parent="1">
          <mxGeometry x="685" y="560" width="140" height="90" as="geometry" />
        </mxCell>
        <mxCell id="71VfHX2NH4AoiYsdJ9OX-14" value="Название состояния" style="text;strokeColor=none;fillColor=none;align=left;verticalAlign=middle;spacingLeft=4;spacingRight=4;overflow=hidden;points=[[0,0.5],[1,0.5]];portConstraint=eastwest;rotatable=0;whiteSpace=wrap;html=1;" vertex="1" parent="71VfHX2NH4AoiYsdJ9OX-13">
          <mxGeometry y="30" width="140" height="30" as="geometry" />
        </mxCell>
        <mxCell id="71VfHX2NH4AoiYsdJ9OX-26" value="Описание" style="text;strokeColor=none;fillColor=none;align=left;verticalAlign=middle;spacingLeft=4;spacingRight=4;overflow=hidden;points=[[0,0.5],[1,0.5]];portConstraint=eastwest;rotatable=0;whiteSpace=wrap;html=1;" vertex="1" parent="71VfHX2NH4AoiYsdJ9OX-13">
          <mxGeometry y="60" width="140" height="30" as="geometry" />
        </mxCell>
        <mxCell id="71VfHX2NH4AoiYsdJ9OX-18" value="ID участника" style="swimlane;fontStyle=0;childLayout=stackLayout;horizontal=1;startSize=30;horizontalStack=0;resizeParent=1;resizeParentMax=0;resizeLast=0;collapsible=1;marginBottom=0;whiteSpace=wrap;html=1;" vertex="1" parent="1">
          <mxGeometry x="515" y="280" width="140" height="180" as="geometry" />
        </mxCell>
        <mxCell id="71VfHX2NH4AoiYsdJ9OX-19" value="ФИО участника" style="text;strokeColor=none;fillColor=none;align=left;verticalAlign=middle;spacingLeft=4;spacingRight=4;overflow=hidden;points=[[0,0.5],[1,0.5]];portConstraint=eastwest;rotatable=0;whiteSpace=wrap;html=1;" vertex="1" parent="71VfHX2NH4AoiYsdJ9OX-18">
          <mxGeometry y="30" width="140" height="30" as="geometry" />
        </mxCell>
        <mxCell id="71VfHX2NH4AoiYsdJ9OX-20" value="Дата рождения" style="text;strokeColor=none;fillColor=none;align=left;verticalAlign=middle;spacingLeft=4;spacingRight=4;overflow=hidden;points=[[0,0.5],[1,0.5]];portConstraint=eastwest;rotatable=0;whiteSpace=wrap;html=1;" vertex="1" parent="71VfHX2NH4AoiYsdJ9OX-18">
          <mxGeometry y="60" width="140" height="30" as="geometry" />
        </mxCell>
        <mxCell id="71VfHX2NH4AoiYsdJ9OX-21" value="Город" style="text;strokeColor=none;fillColor=none;align=left;verticalAlign=middle;spacingLeft=4;spacingRight=4;overflow=hidden;points=[[0,0.5],[1,0.5]];portConstraint=eastwest;rotatable=0;whiteSpace=wrap;html=1;" vertex="1" parent="71VfHX2NH4AoiYsdJ9OX-18">
          <mxGeometry y="90" width="140" height="30" as="geometry" />
        </mxCell>
        <mxCell id="71VfHX2NH4AoiYsdJ9OX-22" value="Номер телефона" style="text;strokeColor=none;fillColor=none;align=left;verticalAlign=middle;spacingLeft=4;spacingRight=4;overflow=hidden;points=[[0,0.5],[1,0.5]];portConstraint=eastwest;rotatable=0;whiteSpace=wrap;html=1;" vertex="1" parent="71VfHX2NH4AoiYsdJ9OX-18">
          <mxGeometry y="120" width="140" height="30" as="geometry" />
        </mxCell>
        <mxCell id="71VfHX2NH4AoiYsdJ9OX-23" value="Электронная почта" style="text;strokeColor=none;fillColor=none;align=left;verticalAlign=middle;spacingLeft=4;spacingRight=4;overflow=hidden;points=[[0,0.5],[1,0.5]];portConstraint=eastwest;rotatable=0;whiteSpace=wrap;html=1;" vertex="1" parent="71VfHX2NH4AoiYsdJ9OX-18">
          <mxGeometry y="150" width="140" height="30" as="geometry" />
        </mxCell>
        <mxCell id="71VfHX2NH4AoiYsdJ9OX-24" style="edgeStyle=orthogonalEdgeStyle;rounded=0;orthogonalLoop=1;jettySize=auto;html=1;exitX=0;exitY=0.5;exitDx=0;exitDy=0;entryX=1;entryY=0.5;entryDx=0;entryDy=0;dashed=1;dashPattern=8 8;endSize=10;endArrow=oval;endFill=1;" edge="1" parent="1" source="71VfHX2NH4AoiYsdJ9OX-20" target="71VfHX2NH4AoiYsdJ9OX-4">
          <mxGeometry relative="1" as="geometry" />
        </mxCell>
        <mxCell id="71VfHX2NH4AoiYsdJ9OX-40" value="ID скрипта транспортного потока" style="swimlane;fontStyle=0;childLayout=stackLayout;horizontal=1;startSize=30;horizontalStack=0;resizeParent=1;resizeParentMax=0;resizeLast=0;collapsible=1;marginBottom=0;whiteSpace=wrap;html=1;" vertex="1" parent="1">
          <mxGeometry x="20" y="470" width="200" height="120" as="geometry" />
        </mxCell>
        <mxCell id="71VfHX2NH4AoiYsdJ9OX-41" value="Плотность транспортного потока" style="text;strokeColor=none;fillColor=none;align=left;verticalAlign=middle;spacingLeft=4;spacingRight=4;overflow=hidden;points=[[0,0.5],[1,0.5]];portConstraint=eastwest;rotatable=0;whiteSpace=wrap;html=1;" vertex="1" parent="71VfHX2NH4AoiYsdJ9OX-40">
          <mxGeometry y="30" width="200" height="30" as="geometry" />
        </mxCell>
        <mxCell id="71VfHX2NH4AoiYsdJ9OX-43" value="Название" style="text;strokeColor=none;fillColor=none;align=left;verticalAlign=middle;spacingLeft=4;spacingRight=4;overflow=hidden;points=[[0,0.5],[1,0.5]];portConstraint=eastwest;rotatable=0;whiteSpace=wrap;html=1;" vertex="1" parent="71VfHX2NH4AoiYsdJ9OX-40">
          <mxGeometry y="60" width="200" height="30" as="geometry" />
        </mxCell>
        <mxCell id="71VfHX2NH4AoiYsdJ9OX-42" value="Дата создания" style="text;strokeColor=none;fillColor=none;align=left;verticalAlign=middle;spacingLeft=4;spacingRight=4;overflow=hidden;points=[[0,0.5],[1,0.5]];portConstraint=eastwest;rotatable=0;whiteSpace=wrap;html=1;" vertex="1" parent="71VfHX2NH4AoiYsdJ9OX-40">
          <mxGeometry y="90" width="200" height="30" as="geometry" />
        </mxCell>
        <mxCell id="71VfHX2NH4AoiYsdJ9OX-52" style="edgeStyle=orthogonalEdgeStyle;rounded=0;orthogonalLoop=1;jettySize=auto;html=1;entryX=0;entryY=0.5;entryDx=0;entryDy=0;dashed=1;dashPattern=8 8;endArrow=oval;endFill=1;endSize=10;" edge="1" parent="1" source="71VfHX2NH4AoiYsdJ9OX-41" target="71VfHX2NH4AoiYsdJ9OX-33">
          <mxGeometry relative="1" as="geometry">
            <Array as="points">
              <mxPoint x="240" y="515" />
              <mxPoint x="240" y="695" />
            </Array>
          </mxGeometry>
        </mxCell>
        <mxCell id="71VfHX2NH4AoiYsdJ9OX-72" style="edgeStyle=orthogonalEdgeStyle;rounded=0;orthogonalLoop=1;jettySize=auto;html=1;entryX=0;entryY=0.5;entryDx=0;entryDy=0;dashed=1;dashPattern=8 8;endArrow=oval;endFill=1;endSize=10;" edge="1" parent="1" source="71VfHX2NH4AoiYsdJ9OX-53" target="71VfHX2NH4AoiYsdJ9OX-36">
          <mxGeometry relative="1" as="geometry" />
        </mxCell>
        <mxCell id="71VfHX2NH4AoiYsdJ9OX-53" value="ID скрипта времени суток" style="swimlane;fontStyle=0;childLayout=stackLayout;horizontal=1;startSize=30;horizontalStack=0;resizeParent=1;resizeParentMax=0;resizeLast=0;collapsible=1;marginBottom=0;whiteSpace=wrap;html=1;" vertex="1" parent="1">
          <mxGeometry x="85" y="960" width="200" height="120" as="geometry" />
        </mxCell>
        <mxCell id="71VfHX2NH4AoiYsdJ9OX-54" value="Название" style="text;strokeColor=none;fillColor=none;align=left;verticalAlign=middle;spacingLeft=4;spacingRight=4;overflow=hidden;points=[[0,0.5],[1,0.5]];portConstraint=eastwest;rotatable=0;whiteSpace=wrap;html=1;" vertex="1" parent="71VfHX2NH4AoiYsdJ9OX-53">
          <mxGeometry y="30" width="200" height="30" as="geometry" />
        </mxCell>
        <mxCell id="71VfHX2NH4AoiYsdJ9OX-55" value="Время игровых суток" style="text;strokeColor=none;fillColor=none;align=left;verticalAlign=middle;spacingLeft=4;spacingRight=4;overflow=hidden;points=[[0,0.5],[1,0.5]];portConstraint=eastwest;rotatable=0;whiteSpace=wrap;html=1;" vertex="1" parent="71VfHX2NH4AoiYsdJ9OX-53">
          <mxGeometry y="60" width="200" height="30" as="geometry" />
        </mxCell>
        <mxCell id="71VfHX2NH4AoiYsdJ9OX-56" value="Дата создания" style="text;strokeColor=none;fillColor=none;align=left;verticalAlign=middle;spacingLeft=4;spacingRight=4;overflow=hidden;points=[[0,0.5],[1,0.5]];portConstraint=eastwest;rotatable=0;whiteSpace=wrap;html=1;" vertex="1" parent="71VfHX2NH4AoiYsdJ9OX-53">
          <mxGeometry y="90" width="200" height="30" as="geometry" />
        </mxCell>
        <mxCell id="71VfHX2NH4AoiYsdJ9OX-64" style="edgeStyle=orthogonalEdgeStyle;rounded=0;orthogonalLoop=1;jettySize=auto;html=1;entryX=0;entryY=0.5;entryDx=0;entryDy=0;dashed=1;dashPattern=8 8;endSize=10;endArrow=oval;endFill=1;" edge="1" parent="1" source="71VfHX2NH4AoiYsdJ9OX-59" target="71VfHX2NH4AoiYsdJ9OX-37">
          <mxGeometry relative="1" as="geometry" />
        </mxCell>
        <mxCell id="71VfHX2NH4AoiYsdJ9OX-59" value="ID скрипта погодных условий" style="swimlane;fontStyle=0;childLayout=stackLayout;horizontal=1;startSize=30;horizontalStack=0;resizeParent=1;resizeParentMax=0;resizeLast=0;collapsible=1;marginBottom=0;whiteSpace=wrap;html=1;" vertex="1" parent="1">
          <mxGeometry x="505" y="960" width="200" height="120" as="geometry" />
        </mxCell>
        <mxCell id="71VfHX2NH4AoiYsdJ9OX-60" value="Плотность транспортного потока" style="text;strokeColor=none;fillColor=none;align=left;verticalAlign=middle;spacingLeft=4;spacingRight=4;overflow=hidden;points=[[0,0.5],[1,0.5]];portConstraint=eastwest;rotatable=0;whiteSpace=wrap;html=1;" vertex="1" parent="71VfHX2NH4AoiYsdJ9OX-59">
          <mxGeometry y="30" width="200" height="30" as="geometry" />
        </mxCell>
        <mxCell id="71VfHX2NH4AoiYsdJ9OX-61" value="Название" style="text;strokeColor=none;fillColor=none;align=left;verticalAlign=middle;spacingLeft=4;spacingRight=4;overflow=hidden;points=[[0,0.5],[1,0.5]];portConstraint=eastwest;rotatable=0;whiteSpace=wrap;html=1;" vertex="1" parent="71VfHX2NH4AoiYsdJ9OX-59">
          <mxGeometry y="60" width="200" height="30" as="geometry" />
        </mxCell>
        <mxCell id="71VfHX2NH4AoiYsdJ9OX-62" value="Дата создания" style="text;strokeColor=none;fillColor=none;align=left;verticalAlign=middle;spacingLeft=4;spacingRight=4;overflow=hidden;points=[[0,0.5],[1,0.5]];portConstraint=eastwest;rotatable=0;whiteSpace=wrap;html=1;" vertex="1" parent="71VfHX2NH4AoiYsdJ9OX-59">
          <mxGeometry y="90" width="200" height="30" as="geometry" />
        </mxCell>
        <mxCell id="71VfHX2NH4AoiYsdJ9OX-65" value="ID скрипта погодных условий" style="swimlane;fontStyle=0;childLayout=stackLayout;horizontal=1;startSize=30;horizontalStack=0;resizeParent=1;resizeParentMax=0;resizeLast=0;collapsible=1;marginBottom=0;whiteSpace=wrap;html=1;" vertex="1" parent="1">
          <mxGeometry x="625" y="780" width="200" height="120" as="geometry" />
        </mxCell>
        <mxCell id="71VfHX2NH4AoiYsdJ9OX-66" value="Карта рельефа" style="text;strokeColor=none;fillColor=none;align=left;verticalAlign=middle;spacingLeft=4;spacingRight=4;overflow=hidden;points=[[0,0.5],[1,0.5]];portConstraint=eastwest;rotatable=0;whiteSpace=wrap;html=1;" vertex="1" parent="71VfHX2NH4AoiYsdJ9OX-65">
          <mxGeometry y="30" width="200" height="30" as="geometry" />
        </mxCell>
        <mxCell id="71VfHX2NH4AoiYsdJ9OX-67" value="Название" style="text;strokeColor=none;fillColor=none;align=left;verticalAlign=middle;spacingLeft=4;spacingRight=4;overflow=hidden;points=[[0,0.5],[1,0.5]];portConstraint=eastwest;rotatable=0;whiteSpace=wrap;html=1;" vertex="1" parent="71VfHX2NH4AoiYsdJ9OX-65">
          <mxGeometry y="60" width="200" height="30" as="geometry" />
        </mxCell>
        <mxCell id="71VfHX2NH4AoiYsdJ9OX-68" value="Дата создания" style="text;strokeColor=none;fillColor=none;align=left;verticalAlign=middle;spacingLeft=4;spacingRight=4;overflow=hidden;points=[[0,0.5],[1,0.5]];portConstraint=eastwest;rotatable=0;whiteSpace=wrap;html=1;" vertex="1" parent="71VfHX2NH4AoiYsdJ9OX-65">
          <mxGeometry y="90" width="200" height="30" as="geometry" />
        </mxCell>
        <mxCell id="71VfHX2NH4AoiYsdJ9OX-71" style="edgeStyle=orthogonalEdgeStyle;rounded=0;orthogonalLoop=1;jettySize=auto;html=1;entryX=1;entryY=0.5;entryDx=0;entryDy=0;dashed=1;dashPattern=8 8;endSize=10;endArrow=oval;endFill=1;" edge="1" parent="1" source="71VfHX2NH4AoiYsdJ9OX-66" target="71VfHX2NH4AoiYsdJ9OX-39">
          <mxGeometry relative="1" as="geometry" />
        </mxCell>
        <mxCell id="71VfHX2NH4AoiYsdJ9OX-77" value="Обслуживает" style="text;html=1;strokeColor=none;fillColor=none;align=center;verticalAlign=middle;whiteSpace=wrap;rounded=0;fontStyle=1" vertex="1" parent="1">
          <mxGeometry x="610" y="510" width="60" height="30" as="geometry" />
        </mxCell>
        <mxCell id="71VfHX2NH4AoiYsdJ9OX-78" value="Состоит" style="text;html=1;strokeColor=none;fillColor=none;align=center;verticalAlign=middle;whiteSpace=wrap;rounded=0;fontStyle=1" vertex="1" parent="1">
          <mxGeometry x="420" y="310" width="60" height="30" as="geometry" />
        </mxCell>
        <mxCell id="71VfHX2NH4AoiYsdJ9OX-79" value="Работает на" style="text;html=1;strokeColor=none;fillColor=none;align=center;verticalAlign=middle;whiteSpace=wrap;rounded=0;fontStyle=1" vertex="1" parent="1">
          <mxGeometry x="170" y="420" width="80" height="30" as="geometry" />
        </mxCell>
        <mxCell id="71VfHX2NH4AoiYsdJ9OX-81" value="Используется" style="text;html=1;strokeColor=none;fillColor=none;align=center;verticalAlign=middle;whiteSpace=wrap;rounded=0;fontStyle=1" vertex="1" parent="1">
          <mxGeometry x="145" y="610" width="80" height="30" as="geometry" />
        </mxCell>
        <mxCell id="71VfHX2NH4AoiYsdJ9OX-82" value="Используется" style="text;html=1;strokeColor=none;fillColor=none;align=center;verticalAlign=middle;whiteSpace=wrap;rounded=0;fontStyle=1" vertex="1" parent="1">
          <mxGeometry x="85" y="810" width="80" height="30" as="geometry" />
        </mxCell>
        <mxCell id="71VfHX2NH4AoiYsdJ9OX-84" value="Используется" style="text;html=1;strokeColor=none;fillColor=none;align=center;verticalAlign=middle;whiteSpace=wrap;rounded=0;fontStyle=1" vertex="1" parent="1">
          <mxGeometry x="575" y="740" width="80" height="30" as="geometry" />
        </mxCell>
        <mxCell id="71VfHX2NH4AoiYsdJ9OX-86" value="Используется" style="text;html=1;strokeColor=none;fillColor=none;align=center;verticalAlign=middle;whiteSpace=wrap;rounded=0;fontStyle=1" vertex="1" parent="1">
          <mxGeometry x="410" y="890" width="80" height="30" as="geometry" />
        </mxCell>
        <mxCell id="71VfHX2NH4AoiYsdJ9OX-93" value="ID скрипта светофора" style="swimlane;fontStyle=0;childLayout=stackLayout;horizontal=1;startSize=30;horizontalStack=0;resizeParent=1;resizeParentMax=0;resizeLast=0;collapsible=1;marginBottom=0;whiteSpace=wrap;html=1;" vertex="1" parent="1">
          <mxGeometry x="220" y="100" width="230" height="150" as="geometry" />
        </mxCell>
        <mxCell id="71VfHX2NH4AoiYsdJ9OX-94" value="Время обработки" style="text;strokeColor=none;fillColor=none;align=left;verticalAlign=middle;spacingLeft=4;spacingRight=4;overflow=hidden;points=[[0,0.5],[1,0.5]];portConstraint=eastwest;rotatable=0;whiteSpace=wrap;html=1;" vertex="1" parent="71VfHX2NH4AoiYsdJ9OX-93">
          <mxGeometry y="30" width="230" height="30" as="geometry" />
        </mxCell>
        <mxCell id="71VfHX2NH4AoiYsdJ9OX-95" value="Время работы скрипта" style="text;strokeColor=none;fillColor=none;align=left;verticalAlign=middle;spacingLeft=4;spacingRight=4;overflow=hidden;points=[[0,0.5],[1,0.5]];portConstraint=eastwest;rotatable=0;whiteSpace=wrap;html=1;" vertex="1" parent="71VfHX2NH4AoiYsdJ9OX-93">
          <mxGeometry y="60" width="230" height="30" as="geometry" />
        </mxCell>
        <mxCell id="71VfHX2NH4AoiYsdJ9OX-98" value="Эффективность" style="text;strokeColor=none;fillColor=none;align=left;verticalAlign=middle;spacingLeft=4;spacingRight=4;overflow=hidden;points=[[0,0.5],[1,0.5]];portConstraint=eastwest;rotatable=0;whiteSpace=wrap;html=1;" vertex="1" parent="71VfHX2NH4AoiYsdJ9OX-93">
          <mxGeometry y="90" width="230" height="30" as="geometry" />
        </mxCell>
        <mxCell id="71VfHX2NH4AoiYsdJ9OX-96" value="Дата создания" style="text;strokeColor=none;fillColor=none;align=left;verticalAlign=middle;spacingLeft=4;spacingRight=4;overflow=hidden;points=[[0,0.5],[1,0.5]];portConstraint=eastwest;rotatable=0;whiteSpace=wrap;html=1;" vertex="1" parent="71VfHX2NH4AoiYsdJ9OX-93">
          <mxGeometry y="120" width="230" height="30" as="geometry" />
        </mxCell>
        <mxCell id="71VfHX2NH4AoiYsdJ9OX-97" style="edgeStyle=orthogonalEdgeStyle;rounded=0;orthogonalLoop=1;jettySize=auto;html=1;entryX=0;entryY=0.5;entryDx=0;entryDy=0;endSize=10;endArrow=oval;endFill=1;dashed=1;dashPattern=8 8;" edge="1" parent="1" source="71VfHX2NH4AoiYsdJ9OX-95" target="71VfHX2NH4AoiYsdJ9OX-88">
          <mxGeometry relative="1" as="geometry">
            <Array as="points">
              <mxPoint x="50" y="175" />
              <mxPoint x="50" y="385" />
            </Array>
          </mxGeometry>
        </mxCell>
        <mxCell id="71VfHX2NH4AoiYsdJ9OX-99" value="Разрабатывается" style="text;html=1;strokeColor=none;fillColor=none;align=center;verticalAlign=middle;whiteSpace=wrap;rounded=0;fontStyle=1" vertex="1" parent="1">
          <mxGeometry x="70" y="140" width="80" height="30" as="geometry" />
        </mxCell>
      </root>
    </mxGraphModel>
  </diagram>
  <diagram id="pa55-tMJxZ_2naUBNXwN" name="Страница — 2">
    <mxGraphModel dx="3000" dy="1617" grid="1" gridSize="10" guides="1" tooltips="1" connect="1" arrows="1" fold="1" page="1" pageScale="1" pageWidth="2336" pageHeight="1654" math="0" shadow="0">
      <root>
        <mxCell id="0" />
        <mxCell id="1" parent="0" />
        <mxCell id="SnneYfQ_Vd1Orqimfw1o-1" value="Интерактивная работа со стендом &quot;Светофор&quot;" style="swimlane;fontStyle=0;childLayout=stackLayout;horizontal=1;startSize=80;horizontalStack=0;resizeParent=1;resizeParentMax=0;resizeLast=0;collapsible=1;marginBottom=0;whiteSpace=wrap;html=1;" vertex="1" parent="1">
          <mxGeometry x="20" y="320" width="140" height="100" as="geometry" />
        </mxCell>
        <mxCell id="SnneYfQ_Vd1Orqimfw1o-2" value="1.1" style="text;strokeColor=none;fillColor=none;align=left;verticalAlign=middle;spacingLeft=4;spacingRight=4;overflow=hidden;points=[[0,0.5],[1,0.5]];portConstraint=eastwest;rotatable=0;whiteSpace=wrap;html=1;" vertex="1" parent="SnneYfQ_Vd1Orqimfw1o-1">
          <mxGeometry y="80" width="140" height="20" as="geometry" />
        </mxCell>
        <mxCell id="SnneYfQ_Vd1Orqimfw1o-67" style="edgeStyle=orthogonalEdgeStyle;rounded=0;orthogonalLoop=1;jettySize=auto;html=1;exitX=1;exitY=0.5;exitDx=0;exitDy=0;entryX=0;entryY=0.5;entryDx=0;entryDy=0;" edge="1" parent="1" source="SnneYfQ_Vd1Orqimfw1o-7" target="SnneYfQ_Vd1Orqimfw1o-65">
          <mxGeometry relative="1" as="geometry" />
        </mxCell>
        <mxCell id="SnneYfQ_Vd1Orqimfw1o-7" value="Подключение организатора к стенду" style="swimlane;fontStyle=0;childLayout=stackLayout;horizontal=1;startSize=80;horizontalStack=0;resizeParent=1;resizeParentMax=0;resizeLast=0;collapsible=1;marginBottom=0;whiteSpace=wrap;html=1;" vertex="1" parent="1">
          <mxGeometry x="200" y="780" width="140" height="100" as="geometry" />
        </mxCell>
        <mxCell id="SnneYfQ_Vd1Orqimfw1o-8" value="1.1.3" style="text;strokeColor=none;fillColor=none;align=left;verticalAlign=middle;spacingLeft=4;spacingRight=4;overflow=hidden;points=[[0,0.5],[1,0.5]];portConstraint=eastwest;rotatable=0;whiteSpace=wrap;html=1;" vertex="1" parent="SnneYfQ_Vd1Orqimfw1o-7">
          <mxGeometry y="80" width="140" height="20" as="geometry" />
        </mxCell>
        <mxCell id="SnneYfQ_Vd1Orqimfw1o-46" style="edgeStyle=orthogonalEdgeStyle;rounded=0;orthogonalLoop=1;jettySize=auto;html=1;exitX=1;exitY=0.5;exitDx=0;exitDy=0;entryX=0;entryY=0.5;entryDx=0;entryDy=0;" edge="1" parent="1" source="SnneYfQ_Vd1Orqimfw1o-9" target="SnneYfQ_Vd1Orqimfw1o-23">
          <mxGeometry relative="1" as="geometry" />
        </mxCell>
        <mxCell id="SnneYfQ_Vd1Orqimfw1o-9" value="Соединение команды со стендом" style="swimlane;fontStyle=0;childLayout=stackLayout;horizontal=1;startSize=80;horizontalStack=0;resizeParent=1;resizeParentMax=0;resizeLast=0;collapsible=1;marginBottom=0;whiteSpace=wrap;html=1;" vertex="1" parent="1">
          <mxGeometry x="1270" y="780" width="140" height="100" as="geometry" />
        </mxCell>
        <mxCell id="SnneYfQ_Vd1Orqimfw1o-10" value="1.1.10" style="text;strokeColor=none;fillColor=none;align=left;verticalAlign=middle;spacingLeft=4;spacingRight=4;overflow=hidden;points=[[0,0.5],[1,0.5]];portConstraint=eastwest;rotatable=0;whiteSpace=wrap;html=1;" vertex="1" parent="SnneYfQ_Vd1Orqimfw1o-9">
          <mxGeometry y="80" width="140" height="20" as="geometry" />
        </mxCell>
        <mxCell id="SnneYfQ_Vd1Orqimfw1o-35" style="edgeStyle=orthogonalEdgeStyle;rounded=0;orthogonalLoop=1;jettySize=auto;html=1;exitX=1;exitY=0.5;exitDx=0;exitDy=0;entryX=0;entryY=0.5;entryDx=0;entryDy=0;" edge="1" parent="1" source="SnneYfQ_Vd1Orqimfw1o-13" target="SnneYfQ_Vd1Orqimfw1o-7">
          <mxGeometry relative="1" as="geometry" />
        </mxCell>
        <mxCell id="SnneYfQ_Vd1Orqimfw1o-13" value="Включение стенда" style="swimlane;fontStyle=0;childLayout=stackLayout;horizontal=1;startSize=80;horizontalStack=0;resizeParent=1;resizeParentMax=0;resizeLast=0;collapsible=1;marginBottom=0;whiteSpace=wrap;html=1;" vertex="1" parent="1">
          <mxGeometry x="20" y="780" width="140" height="100" as="geometry" />
        </mxCell>
        <mxCell id="SnneYfQ_Vd1Orqimfw1o-14" value="1.1.2" style="text;strokeColor=none;fillColor=none;align=left;verticalAlign=middle;spacingLeft=4;spacingRight=4;overflow=hidden;points=[[0,0.5],[1,0.5]];portConstraint=eastwest;rotatable=0;whiteSpace=wrap;html=1;" vertex="1" parent="SnneYfQ_Vd1Orqimfw1o-13">
          <mxGeometry y="80" width="140" height="20" as="geometry" />
        </mxCell>
        <mxCell id="SnneYfQ_Vd1Orqimfw1o-59" style="edgeStyle=orthogonalEdgeStyle;rounded=0;orthogonalLoop=1;jettySize=auto;html=1;exitX=1;exitY=0.5;exitDx=0;exitDy=0;entryX=0;entryY=0.5;entryDx=0;entryDy=0;" edge="1" parent="1" source="SnneYfQ_Vd1Orqimfw1o-15" target="SnneYfQ_Vd1Orqimfw1o-58">
          <mxGeometry relative="1" as="geometry" />
        </mxCell>
        <mxCell id="SnneYfQ_Vd1Orqimfw1o-15" value="Загрузка скрипта транспортного потока" style="swimlane;fontStyle=0;childLayout=stackLayout;horizontal=1;startSize=80;horizontalStack=0;resizeParent=1;resizeParentMax=0;resizeLast=0;collapsible=1;marginBottom=0;whiteSpace=wrap;html=1;" vertex="1" parent="1">
          <mxGeometry x="708" y="600" width="140" height="100" as="geometry" />
        </mxCell>
        <mxCell id="SnneYfQ_Vd1Orqimfw1o-16" value="1.1.5" style="text;strokeColor=none;fillColor=none;align=left;verticalAlign=middle;spacingLeft=4;spacingRight=4;overflow=hidden;points=[[0,0.5],[1,0.5]];portConstraint=eastwest;rotatable=0;whiteSpace=wrap;html=1;" vertex="1" parent="SnneYfQ_Vd1Orqimfw1o-15">
          <mxGeometry y="80" width="140" height="20" as="geometry" />
        </mxCell>
        <mxCell id="SnneYfQ_Vd1Orqimfw1o-61" style="edgeStyle=orthogonalEdgeStyle;rounded=0;orthogonalLoop=1;jettySize=auto;html=1;exitX=1;exitY=0.5;exitDx=0;exitDy=0;entryX=0;entryY=0.5;entryDx=0;entryDy=0;" edge="1" parent="1" source="SnneYfQ_Vd1Orqimfw1o-17" target="SnneYfQ_Vd1Orqimfw1o-58">
          <mxGeometry relative="1" as="geometry" />
        </mxCell>
        <mxCell id="SnneYfQ_Vd1Orqimfw1o-17" value="Загрузка скрипта погодных условий" style="swimlane;fontStyle=0;childLayout=stackLayout;horizontal=1;startSize=80;horizontalStack=0;resizeParent=1;resizeParentMax=0;resizeLast=0;collapsible=1;marginBottom=0;whiteSpace=wrap;html=1;" vertex="1" parent="1">
          <mxGeometry x="708" y="726" width="140" height="100" as="geometry" />
        </mxCell>
        <mxCell id="SnneYfQ_Vd1Orqimfw1o-18" value="1.1.6" style="text;strokeColor=none;fillColor=none;align=left;verticalAlign=middle;spacingLeft=4;spacingRight=4;overflow=hidden;points=[[0,0.5],[1,0.5]];portConstraint=eastwest;rotatable=0;whiteSpace=wrap;html=1;" vertex="1" parent="SnneYfQ_Vd1Orqimfw1o-17">
          <mxGeometry y="80" width="140" height="20" as="geometry" />
        </mxCell>
        <mxCell id="SnneYfQ_Vd1Orqimfw1o-62" style="edgeStyle=orthogonalEdgeStyle;rounded=0;orthogonalLoop=1;jettySize=auto;html=1;exitX=1;exitY=0.5;exitDx=0;exitDy=0;entryX=0;entryY=0.5;entryDx=0;entryDy=0;" edge="1" parent="1" source="SnneYfQ_Vd1Orqimfw1o-19" target="SnneYfQ_Vd1Orqimfw1o-58">
          <mxGeometry relative="1" as="geometry" />
        </mxCell>
        <mxCell id="SnneYfQ_Vd1Orqimfw1o-19" value="Загрузка скрипта рельефа" style="swimlane;fontStyle=0;childLayout=stackLayout;horizontal=1;startSize=80;horizontalStack=0;resizeParent=1;resizeParentMax=0;resizeLast=0;collapsible=1;marginBottom=0;whiteSpace=wrap;html=1;" vertex="1" parent="1">
          <mxGeometry x="708" y="856" width="140" height="100" as="geometry" />
        </mxCell>
        <mxCell id="SnneYfQ_Vd1Orqimfw1o-20" value="1.1.7" style="text;strokeColor=none;fillColor=none;align=left;verticalAlign=middle;spacingLeft=4;spacingRight=4;overflow=hidden;points=[[0,0.5],[1,0.5]];portConstraint=eastwest;rotatable=0;whiteSpace=wrap;html=1;" vertex="1" parent="SnneYfQ_Vd1Orqimfw1o-19">
          <mxGeometry y="80" width="140" height="20" as="geometry" />
        </mxCell>
        <mxCell id="SnneYfQ_Vd1Orqimfw1o-63" style="edgeStyle=orthogonalEdgeStyle;rounded=0;orthogonalLoop=1;jettySize=auto;html=1;exitX=1;exitY=0.5;exitDx=0;exitDy=0;entryX=0;entryY=0.5;entryDx=0;entryDy=0;" edge="1" parent="1" source="SnneYfQ_Vd1Orqimfw1o-21" target="SnneYfQ_Vd1Orqimfw1o-58">
          <mxGeometry relative="1" as="geometry" />
        </mxCell>
        <mxCell id="SnneYfQ_Vd1Orqimfw1o-21" value="Загрузка скрипта рельефа" style="swimlane;fontStyle=0;childLayout=stackLayout;horizontal=1;startSize=80;horizontalStack=0;resizeParent=1;resizeParentMax=0;resizeLast=0;collapsible=1;marginBottom=0;whiteSpace=wrap;html=1;" vertex="1" parent="1">
          <mxGeometry x="708" y="980" width="140" height="100" as="geometry" />
        </mxCell>
        <mxCell id="SnneYfQ_Vd1Orqimfw1o-22" value="1.1.8" style="text;strokeColor=none;fillColor=none;align=left;verticalAlign=middle;spacingLeft=4;spacingRight=4;overflow=hidden;points=[[0,0.5],[1,0.5]];portConstraint=eastwest;rotatable=0;whiteSpace=wrap;html=1;" vertex="1" parent="SnneYfQ_Vd1Orqimfw1o-21">
          <mxGeometry y="80" width="140" height="20" as="geometry" />
        </mxCell>
        <mxCell id="SnneYfQ_Vd1Orqimfw1o-47" style="edgeStyle=orthogonalEdgeStyle;rounded=0;orthogonalLoop=1;jettySize=auto;html=1;exitX=1;exitY=0.5;exitDx=0;exitDy=0;entryX=0;entryY=0.5;entryDx=0;entryDy=0;" edge="1" parent="1" source="SnneYfQ_Vd1Orqimfw1o-23" target="SnneYfQ_Vd1Orqimfw1o-25">
          <mxGeometry relative="1" as="geometry" />
        </mxCell>
        <mxCell id="SnneYfQ_Vd1Orqimfw1o-23" value="Знакомство участников с имитацией условий" style="swimlane;fontStyle=0;childLayout=stackLayout;horizontal=1;startSize=80;horizontalStack=0;resizeParent=1;resizeParentMax=0;resizeLast=0;collapsible=1;marginBottom=0;whiteSpace=wrap;html=1;" vertex="1" parent="1">
          <mxGeometry x="1460" y="780" width="140" height="100" as="geometry" />
        </mxCell>
        <mxCell id="SnneYfQ_Vd1Orqimfw1o-24" value="1.1.11" style="text;strokeColor=none;fillColor=none;align=left;verticalAlign=middle;spacingLeft=4;spacingRight=4;overflow=hidden;points=[[0,0.5],[1,0.5]];portConstraint=eastwest;rotatable=0;whiteSpace=wrap;html=1;" vertex="1" parent="SnneYfQ_Vd1Orqimfw1o-23">
          <mxGeometry y="80" width="140" height="20" as="geometry" />
        </mxCell>
        <mxCell id="SnneYfQ_Vd1Orqimfw1o-48" style="edgeStyle=orthogonalEdgeStyle;rounded=0;orthogonalLoop=1;jettySize=auto;html=1;exitX=1;exitY=0.5;exitDx=0;exitDy=0;entryX=0;entryY=0.5;entryDx=0;entryDy=0;" edge="1" parent="1" source="SnneYfQ_Vd1Orqimfw1o-25" target="SnneYfQ_Vd1Orqimfw1o-29">
          <mxGeometry relative="1" as="geometry" />
        </mxCell>
        <mxCell id="SnneYfQ_Vd1Orqimfw1o-25" value="Написание скрипта работы светофора" style="swimlane;fontStyle=0;childLayout=stackLayout;horizontal=1;startSize=80;horizontalStack=0;resizeParent=1;resizeParentMax=0;resizeLast=0;collapsible=1;marginBottom=0;whiteSpace=wrap;html=1;" vertex="1" parent="1">
          <mxGeometry x="1640" y="780" width="140" height="100" as="geometry" />
        </mxCell>
        <mxCell id="SnneYfQ_Vd1Orqimfw1o-26" value="1.1.12" style="text;strokeColor=none;fillColor=none;align=left;verticalAlign=middle;spacingLeft=4;spacingRight=4;overflow=hidden;points=[[0,0.5],[1,0.5]];portConstraint=eastwest;rotatable=0;whiteSpace=wrap;html=1;" vertex="1" parent="SnneYfQ_Vd1Orqimfw1o-25">
          <mxGeometry y="80" width="140" height="20" as="geometry" />
        </mxCell>
        <mxCell id="SnneYfQ_Vd1Orqimfw1o-49" style="edgeStyle=orthogonalEdgeStyle;rounded=0;orthogonalLoop=1;jettySize=auto;html=1;exitX=1;exitY=0.5;exitDx=0;exitDy=0;entryX=0;entryY=0.5;entryDx=0;entryDy=0;" edge="1" parent="1" source="SnneYfQ_Vd1Orqimfw1o-29" target="SnneYfQ_Vd1Orqimfw1o-31">
          <mxGeometry relative="1" as="geometry" />
        </mxCell>
        <mxCell id="SnneYfQ_Vd1Orqimfw1o-29" value="Внедрение работы светофора в перекресток" style="swimlane;fontStyle=0;childLayout=stackLayout;horizontal=1;startSize=80;horizontalStack=0;resizeParent=1;resizeParentMax=0;resizeLast=0;collapsible=1;marginBottom=0;whiteSpace=wrap;html=1;" vertex="1" parent="1">
          <mxGeometry x="1820" y="780" width="140" height="100" as="geometry" />
        </mxCell>
        <mxCell id="SnneYfQ_Vd1Orqimfw1o-30" value="1.1.13" style="text;strokeColor=none;fillColor=none;align=left;verticalAlign=middle;spacingLeft=4;spacingRight=4;overflow=hidden;points=[[0,0.5],[1,0.5]];portConstraint=eastwest;rotatable=0;whiteSpace=wrap;html=1;" vertex="1" parent="SnneYfQ_Vd1Orqimfw1o-29">
          <mxGeometry y="80" width="140" height="20" as="geometry" />
        </mxCell>
        <mxCell id="SnneYfQ_Vd1Orqimfw1o-50" style="edgeStyle=orthogonalEdgeStyle;rounded=0;orthogonalLoop=1;jettySize=auto;html=1;exitX=1;exitY=0.5;exitDx=0;exitDy=0;entryX=0;entryY=0.5;entryDx=0;entryDy=0;" edge="1" parent="1" source="SnneYfQ_Vd1Orqimfw1o-31" target="SnneYfQ_Vd1Orqimfw1o-33">
          <mxGeometry relative="1" as="geometry" />
        </mxCell>
        <mxCell id="SnneYfQ_Vd1Orqimfw1o-31" value="Оценка работы команды по уровню загруженности перекрестка" style="swimlane;fontStyle=0;childLayout=stackLayout;horizontal=1;startSize=80;horizontalStack=0;resizeParent=1;resizeParentMax=0;resizeLast=0;collapsible=1;marginBottom=0;whiteSpace=wrap;html=1;" vertex="1" parent="1">
          <mxGeometry x="2000" y="780" width="140" height="100" as="geometry" />
        </mxCell>
        <mxCell id="SnneYfQ_Vd1Orqimfw1o-32" value="1.1.14" style="text;strokeColor=none;fillColor=none;align=left;verticalAlign=middle;spacingLeft=4;spacingRight=4;overflow=hidden;points=[[0,0.5],[1,0.5]];portConstraint=eastwest;rotatable=0;whiteSpace=wrap;html=1;" vertex="1" parent="SnneYfQ_Vd1Orqimfw1o-31">
          <mxGeometry y="80" width="140" height="20" as="geometry" />
        </mxCell>
        <mxCell id="SnneYfQ_Vd1Orqimfw1o-33" value="Выключение стенда" style="swimlane;fontStyle=0;childLayout=stackLayout;horizontal=1;startSize=80;horizontalStack=0;resizeParent=1;resizeParentMax=0;resizeLast=0;collapsible=1;marginBottom=0;whiteSpace=wrap;html=1;" vertex="1" parent="1">
          <mxGeometry x="2180" y="780" width="140" height="100" as="geometry" />
        </mxCell>
        <mxCell id="SnneYfQ_Vd1Orqimfw1o-34" value="1.1.15" style="text;strokeColor=none;fillColor=none;align=left;verticalAlign=middle;spacingLeft=4;spacingRight=4;overflow=hidden;points=[[0,0.5],[1,0.5]];portConstraint=eastwest;rotatable=0;whiteSpace=wrap;html=1;" vertex="1" parent="SnneYfQ_Vd1Orqimfw1o-33">
          <mxGeometry y="80" width="140" height="20" as="geometry" />
        </mxCell>
        <mxCell id="SnneYfQ_Vd1Orqimfw1o-54" style="edgeStyle=orthogonalEdgeStyle;rounded=0;orthogonalLoop=1;jettySize=auto;html=1;exitX=1;exitY=0.5;exitDx=0;exitDy=0;entryX=0;entryY=0.5;entryDx=0;entryDy=0;" edge="1" parent="1" source="SnneYfQ_Vd1Orqimfw1o-52" target="SnneYfQ_Vd1Orqimfw1o-15">
          <mxGeometry relative="1" as="geometry" />
        </mxCell>
        <mxCell id="SnneYfQ_Vd1Orqimfw1o-55" style="edgeStyle=orthogonalEdgeStyle;rounded=0;orthogonalLoop=1;jettySize=auto;html=1;exitX=1;exitY=0.5;exitDx=0;exitDy=0;" edge="1" parent="1" source="SnneYfQ_Vd1Orqimfw1o-52" target="SnneYfQ_Vd1Orqimfw1o-17">
          <mxGeometry relative="1" as="geometry" />
        </mxCell>
        <mxCell id="SnneYfQ_Vd1Orqimfw1o-56" style="edgeStyle=orthogonalEdgeStyle;rounded=0;orthogonalLoop=1;jettySize=auto;html=1;exitX=1;exitY=0.5;exitDx=0;exitDy=0;entryX=0;entryY=0.5;entryDx=0;entryDy=0;" edge="1" parent="1" source="SnneYfQ_Vd1Orqimfw1o-52" target="SnneYfQ_Vd1Orqimfw1o-19">
          <mxGeometry relative="1" as="geometry" />
        </mxCell>
        <mxCell id="SnneYfQ_Vd1Orqimfw1o-57" style="edgeStyle=orthogonalEdgeStyle;rounded=0;orthogonalLoop=1;jettySize=auto;html=1;exitX=1;exitY=0.5;exitDx=0;exitDy=0;entryX=0;entryY=0.5;entryDx=0;entryDy=0;" edge="1" parent="1" source="SnneYfQ_Vd1Orqimfw1o-52" target="SnneYfQ_Vd1Orqimfw1o-21">
          <mxGeometry relative="1" as="geometry" />
        </mxCell>
        <mxCell id="SnneYfQ_Vd1Orqimfw1o-52" value="&lt;font style=&quot;font-size: 34px;&quot;&gt;&amp;amp;&lt;/font&gt;" style="shape=process;whiteSpace=wrap;html=1;backgroundOutline=1;" vertex="1" parent="1">
          <mxGeometry x="550" y="800" width="60" height="60" as="geometry" />
        </mxCell>
        <mxCell id="SnneYfQ_Vd1Orqimfw1o-71" style="edgeStyle=orthogonalEdgeStyle;rounded=0;orthogonalLoop=1;jettySize=auto;html=1;exitX=1;exitY=0.5;exitDx=0;exitDy=0;" edge="1" parent="1" source="SnneYfQ_Vd1Orqimfw1o-58" target="SnneYfQ_Vd1Orqimfw1o-69">
          <mxGeometry relative="1" as="geometry" />
        </mxCell>
        <mxCell id="SnneYfQ_Vd1Orqimfw1o-58" value="&lt;font style=&quot;font-size: 34px;&quot;&gt;&amp;amp;&lt;/font&gt;" style="shape=process;whiteSpace=wrap;html=1;backgroundOutline=1;" vertex="1" parent="1">
          <mxGeometry x="950" y="800" width="60" height="60" as="geometry" />
        </mxCell>
        <mxCell id="SnneYfQ_Vd1Orqimfw1o-68" style="edgeStyle=orthogonalEdgeStyle;rounded=0;orthogonalLoop=1;jettySize=auto;html=1;exitX=1;exitY=0.5;exitDx=0;exitDy=0;entryX=0;entryY=0.5;entryDx=0;entryDy=0;" edge="1" parent="1" source="SnneYfQ_Vd1Orqimfw1o-65" target="SnneYfQ_Vd1Orqimfw1o-52">
          <mxGeometry relative="1" as="geometry" />
        </mxCell>
        <mxCell id="SnneYfQ_Vd1Orqimfw1o-65" value="Загрузка скриптов" style="swimlane;fontStyle=0;childLayout=stackLayout;horizontal=1;startSize=80;horizontalStack=0;resizeParent=1;resizeParentMax=0;resizeLast=0;collapsible=1;marginBottom=0;whiteSpace=wrap;html=1;" vertex="1" parent="1">
          <mxGeometry x="380" y="780" width="140" height="100" as="geometry" />
        </mxCell>
        <mxCell id="SnneYfQ_Vd1Orqimfw1o-66" value="1.1.4" style="text;strokeColor=none;fillColor=none;align=left;verticalAlign=middle;spacingLeft=4;spacingRight=4;overflow=hidden;points=[[0,0.5],[1,0.5]];portConstraint=eastwest;rotatable=0;whiteSpace=wrap;html=1;" vertex="1" parent="SnneYfQ_Vd1Orqimfw1o-65">
          <mxGeometry y="80" width="140" height="20" as="geometry" />
        </mxCell>
        <mxCell id="SnneYfQ_Vd1Orqimfw1o-72" style="edgeStyle=orthogonalEdgeStyle;rounded=0;orthogonalLoop=1;jettySize=auto;html=1;exitX=1;exitY=0.5;exitDx=0;exitDy=0;entryX=0;entryY=0.5;entryDx=0;entryDy=0;" edge="1" parent="1" source="SnneYfQ_Vd1Orqimfw1o-69" target="SnneYfQ_Vd1Orqimfw1o-9">
          <mxGeometry relative="1" as="geometry" />
        </mxCell>
        <mxCell id="SnneYfQ_Vd1Orqimfw1o-69" value="Проверка загрузки всех скриптов" style="swimlane;fontStyle=0;childLayout=stackLayout;horizontal=1;startSize=80;horizontalStack=0;resizeParent=1;resizeParentMax=0;resizeLast=0;collapsible=1;marginBottom=0;whiteSpace=wrap;html=1;" vertex="1" parent="1">
          <mxGeometry x="1070" y="780" width="140" height="100" as="geometry" />
        </mxCell>
        <mxCell id="SnneYfQ_Vd1Orqimfw1o-70" value="1.1.9" style="text;strokeColor=none;fillColor=none;align=left;verticalAlign=middle;spacingLeft=4;spacingRight=4;overflow=hidden;points=[[0,0.5],[1,0.5]];portConstraint=eastwest;rotatable=0;whiteSpace=wrap;html=1;" vertex="1" parent="SnneYfQ_Vd1Orqimfw1o-69">
          <mxGeometry y="80" width="140" height="20" as="geometry" />
        </mxCell>
        <mxCell id="SnneYfQ_Vd1Orqimfw1o-76" style="edgeStyle=orthogonalEdgeStyle;rounded=0;orthogonalLoop=1;jettySize=auto;html=1;exitX=1;exitY=0.5;exitDx=0;exitDy=0;endArrow=none;endFill=0;dashed=1;dashPattern=12 12;entryX=0.51;entryY=1.023;entryDx=0;entryDy=0;entryPerimeter=0;" edge="1" parent="1" source="SnneYfQ_Vd1Orqimfw1o-73" target="SnneYfQ_Vd1Orqimfw1o-70">
          <mxGeometry relative="1" as="geometry">
            <mxPoint x="1140" y="890" as="targetPoint" />
          </mxGeometry>
        </mxCell>
        <mxCell id="SnneYfQ_Vd1Orqimfw1o-73" value="GOTO/ При обнаружении ошибок загрузки скриптов возврат к 1.1.4" style="swimlane;fontStyle=0;childLayout=stackLayout;horizontal=1;startSize=80;horizontalStack=0;resizeParent=1;resizeParentMax=0;resizeLast=0;collapsible=1;marginBottom=0;whiteSpace=wrap;html=1;" vertex="1" parent="1">
          <mxGeometry x="980" y="1010" width="240" height="100" as="geometry" />
        </mxCell>
      </root>
    </mxGraphModel>
  </diagram>
</mxfile>
